<!-- Generated by IcoMoon.io -->
<svg version="1.1" xmlns="http://www.w3.org/2000/svg" width="1792" height="1024" viewBox="0 0 1792 1024">
<title></title>
<g id="icomoon-ignore">
</g>
<path d="M1261.227 0c-22.067 1.803-39.293 20.156-39.293 42.533 0 0.647 0.014 1.291 0.043 1.931l-0.003-0.091c0 11.947 5.12 22.187 13.653 29.867l410.453 395.947h-1607.68c-20.48 0-39.253 22.187-38.4 44.373s21.333 41.813 42.667 40.107h1604.267l-411.307 395.093c-17.067 15.36-17.92 42.667-3.413 59.733 15.36 17.92 40.96 19.627 58.027 3.413l488.107-469.333c8.148-8.049 13.195-19.222 13.195-31.573s-5.047-23.524-13.19-31.569l-0.004-0.004-488.107-469.333c-7.064-6.882-16.727-11.127-27.382-11.127-0.574 0-1.145 0.012-1.713 0.037l0.081-0.003z" fill="#2A5ADA"></path>
</svg>
