<svg width="16" height="17" viewBox="0 0 16 17" fill="none" xmlns="http://www.w3.org/2000/svg">
<path d="M14.9269 4.09746C14.2115 2.841 13.2411 1.84626 12.0155 1.11301C10.7897 0.379732 9.45149 0.0131836 7.99993 0.0131836C6.54855 0.0131836 5.20991 0.379844 3.98437 1.11301C2.75864 1.84622 1.78831 2.841 1.07293 4.09746C0.357655 5.35388 0 6.7259 0 8.21348C0 10.0004 0.50859 11.6073 1.52602 13.0344C2.54335 14.4617 3.85758 15.4494 5.46862 15.9975C5.65615 16.0331 5.79497 16.008 5.88523 15.9228C5.97553 15.8375 6.02062 15.7306 6.02062 15.6026C6.02062 15.5812 6.01884 15.3891 6.01537 15.026C6.01179 14.6629 6.01012 14.3461 6.01012 14.0759L5.77052 14.1183C5.61776 14.147 5.42505 14.1592 5.19239 14.1557C4.95984 14.1524 4.71843 14.1274 4.46848 14.081C4.21841 14.0349 3.98583 13.9282 3.77053 13.7609C3.55535 13.5936 3.40259 13.3746 3.31229 13.1043L3.20813 12.8586C3.1387 12.695 3.02939 12.5133 2.88006 12.3141C2.73073 12.1147 2.57972 11.9796 2.42697 11.9084L2.35403 11.8549C2.30544 11.8193 2.26034 11.7764 2.21864 11.7266C2.17698 11.6769 2.14578 11.627 2.12495 11.5772C2.10408 11.5272 2.12137 11.4863 2.17701 11.4541C2.23265 11.422 2.3332 11.4064 2.4791 11.4064L2.68735 11.4383C2.82625 11.4669 2.99805 11.5521 3.20298 11.6945C3.40781 11.8369 3.57618 12.0219 3.70814 12.2496C3.86795 12.5416 4.06047 12.764 4.28627 12.9171C4.51189 13.0702 4.73937 13.1466 4.96849 13.1466C5.19761 13.1466 5.3955 13.1288 5.56224 13.0933C5.72879 13.0577 5.88505 13.0042 6.03095 12.9331C6.09345 12.456 6.26361 12.0894 6.54129 11.8332C6.14551 11.7906 5.78968 11.7263 5.47362 11.641C5.15773 11.5555 4.83131 11.4167 4.49456 11.2243C4.15763 11.0322 3.87812 10.7936 3.65597 10.509C3.43378 10.2243 3.25144 9.85044 3.10918 9.38785C2.96686 8.92507 2.89568 8.39124 2.89568 7.7862C2.89568 6.92471 3.17004 6.19162 3.71865 5.5865C3.46166 4.93882 3.48592 4.21276 3.79151 3.40838C3.9929 3.34424 4.29156 3.39237 4.68734 3.55248C5.0832 3.71266 5.37303 3.84988 5.55713 3.96364C5.74123 4.07737 5.88873 4.17375 5.99986 4.25192C6.64582 4.0669 7.31242 3.97438 7.99985 3.97438C8.68729 3.97438 9.35404 4.0669 10 4.25192L10.3958 3.99577C10.6665 3.82486 10.9862 3.66823 11.354 3.52585C11.722 3.38355 12.0035 3.34435 12.198 3.40849C12.5104 4.21291 12.5382 4.93894 12.2812 5.58661C12.8297 6.19173 13.1042 6.92501 13.1042 7.78631C13.1042 8.39135 13.0328 8.92687 12.8907 9.3932C12.7484 9.8596 12.5645 10.2331 12.3388 10.5144C12.113 10.7957 11.8317 11.0324 11.4949 11.2244C11.1581 11.4167 10.8316 11.5554 10.5157 11.6409C10.1997 11.7264 9.84384 11.7907 9.44806 11.8334C9.80903 12.1536 9.98956 12.659 9.98956 13.3495V15.6023C9.98956 15.7303 10.033 15.8371 10.1199 15.9225C10.2067 16.0077 10.3437 16.0328 10.5313 15.9971C12.1425 15.4491 13.4568 14.4614 14.474 13.0341C15.4912 11.607 16 10.0001 16 8.21318C15.9996 6.72579 15.6418 5.35388 14.9269 4.09746Z" fill="white"/>
</svg>
