<svg width="16" height="16" viewBox="0 0 16 16" fill="none" xmlns="http://www.w3.org/2000/svg">
<g clip-path="url(#clip0)">
<path d="M4 10C4 9.44772 4.44772 9 5 9C5.55228 9 6 9.44772 6 10C6 10.5523 5.55228 11 5 11C4.44772 11 4 10.5523 4 10ZM10 10C10 9.44772 10.4477 9 11 9C11.5523 9 12 9.44772 12 10C12 10.5523 11.5523 11 11 11C10.4477 11 10 10.5523 10 10ZM10.0486 12.1372C10.3062 11.9343 10.6795 11.9785 10.8824 12.2361C11.0854 12.4937 11.0411 12.867 10.7835 13.0699C10.0663 13.6349 8.97375 14 8 14C7.02622 14 5.93362 13.6349 5.2165 13.07C4.95891 12.867 4.91462 12.4937 5.11756 12.2361C5.32053 11.9786 5.69384 11.9343 5.95141 12.1372C6.36425 12.4624 7.18144 12.8125 8 12.8125C8.81856 12.8125 9.63575 12.4624 10.0486 12.1372V12.1372ZM16 8C16 6.89544 15.1046 6 14 6C13.2482 6 12.5939 6.41516 12.2523 7.02844C11.2243 6.46603 9.97181 6.10272 8.60731 6.01894L9.80078 3.33884L12.0851 3.99822C12.2906 4.58169 12.8463 5 13.5 5C14.3284 5 15 4.32844 15 3.5C15 2.67156 14.3284 2 13.5 2C12.9287 2 12.4322 2.31941 12.1788 2.78928L9.63344 2.05453C9.34869 1.97238 9.04691 2.11269 8.92638 2.38347L7.30497 6.0245C5.97469 6.11819 4.754 6.47797 3.74816 7.02819C3.40653 6.41491 2.75181 6 2 6C0.895437 6 0 6.89544 0 8C0 8.81738 0.490656 9.51959 1.19331 9.82972C1.06722 10.2052 1 10.597 1 11C1 13.7614 4.134 16 8 16C11.866 16 15 13.7614 15 11C15 10.597 14.9328 10.2053 14.8068 9.82991C15.5094 9.51975 16 8.81738 16 8ZM13.5 2.9375C13.8107 2.9375 14.0625 3.18934 14.0625 3.5C14.0625 3.81066 13.8107 4.0625 13.5 4.0625C13.1893 4.0625 12.9375 3.81066 12.9375 3.5C12.9375 3.18934 13.1893 2.9375 13.5 2.9375ZM1 8C1 7.44859 1.44859 7 2 7C2.39856 7 2.74331 7.23444 2.90384 7.57259C2.38122 7.96894 1.94813 8.42612 1.62781 8.92787C1.26025 8.77991 1 8.41987 1 8ZM8 14.8125C4.78984 14.8125 2.1875 13.1056 2.1875 11C2.1875 8.89441 4.78984 7.1875 8 7.1875C11.2102 7.1875 13.8125 8.89441 13.8125 11C13.8125 13.1056 11.2102 14.8125 8 14.8125ZM14.3722 8.92787C14.0519 8.42612 13.6188 7.96894 13.0962 7.57259C13.2567 7.23444 13.6014 7 14 7C14.5514 7 15 7.44859 15 8C15 8.41987 14.7398 8.77991 14.3722 8.92787Z" fill="white"/>
</g>
<defs>
<clipPath id="clip0">
<rect width="16" height="16" fill="white"/>
</clipPath>
</defs>
</svg>
