<svg width="16" height="17" viewBox="0 0 16 17" fill="none" xmlns="http://www.w3.org/2000/svg">
<path fill-rule="evenodd" clip-rule="evenodd" d="M12.5249 14.9772C12.6314 15.0478 12.7555 15.084 12.8805 15.084C12.9626 15.084 13.0451 15.0684 13.1232 15.0367C13.3201 14.9568 13.4627 14.7853 13.5026 14.5804L15.9872 1.82774C15.9921 1.80436 15.9956 1.78082 15.9976 1.75719C16.0006 1.72407 16.0007 1.69094 15.9984 1.65823C15.9887 1.52813 15.9371 1.40042 15.8434 1.29567C15.8329 1.2837 15.8217 1.27221 15.81 1.26098C15.6968 1.15243 15.5518 1.09362 15.4042 1.08503C15.3788 1.08362 15.3532 1.08362 15.3277 1.08511C15.2564 1.08941 15.1858 1.10543 15.119 1.13319L0.399186 6.86276C0.15666 6.95718 -0.00175861 7.1874 1.47363e-05 7.44266C0.00178808 7.69791 0.163416 7.92598 0.407124 8.01718L4.27834 9.46519L5.36176 13.4817C5.41496 13.6789 5.56401 13.8379 5.76026 13.9068C5.95676 13.9755 6.17488 13.9455 6.34411 13.8265L8.50185 12.3077L12.5249 14.9772ZM12.4389 13.4228L8.85528 11.045C8.84979 11.0412 8.84421 11.0374 8.83839 11.0338L7.38965 10.0725L14.3722 3.4998L12.4389 13.4228ZM5.87207 10.5158L6.35189 12.2943L7.38566 11.5666L6.03201 10.6683C5.9691 10.6267 5.91522 10.5748 5.87207 10.5158ZM5.03414 8.42079L2.37598 7.42662L12.6015 3.44648L5.94817 9.7092C5.83966 9.81138 5.77286 9.94702 5.75741 10.0912L5.4203 8.84142C5.36828 8.64862 5.22456 8.49199 5.03414 8.42079Z" fill="white"/>
</svg>
