<svg width="16" height="16" viewBox="0 0 16 16" fill="none" xmlns="http://www.w3.org/2000/svg">
<path d="M16 3.5377C15.4111 3.79864 14.7792 3.97561 14.1153 4.05462C14.7932 3.64868 15.3121 3.00481 15.5581 2.23995C14.9222 2.61587 14.2203 2.88884 13.4724 3.03681C12.8736 2.39794 12.0217 2 11.0769 2C9.26422 2 7.7945 3.46973 7.7945 5.28139C7.7945 5.53833 7.82349 5.78929 7.87949 6.02926C5.15201 5.89227 2.73347 4.58552 1.11477 2.59987C0.831818 3.08379 0.670851 3.64766 0.670851 4.24957C0.670851 5.38837 1.25075 6.39318 2.13059 6.98105C1.59268 6.96307 1.08677 6.81509 0.64387 6.56913V6.61013C0.64387 8.19983 1.77566 9.52657 3.27637 9.82854C3.00142 9.90252 2.71148 9.94352 2.41153 9.94352C2.19959 9.94352 1.99462 9.92252 1.79365 9.88252C2.21156 11.1873 3.42335 12.1361 4.85909 12.1621C3.73629 13.042 2.32055 13.5649 0.782851 13.5649C0.517909 13.5649 0.256942 13.5489 0 13.5199C1.45273 14.4527 3.17742 14.9966 5.03107 14.9966C11.0689 14.9966 14.3693 9.99552 14.3693 5.65833L14.3583 5.23342C15.0032 4.77347 15.5611 4.19559 16 3.5377Z" fill="white"/>
</svg>
