<svg width="16" height="16" viewBox="0 0 16 16" fill="none" xmlns="http://www.w3.org/2000/svg">
<path fill-rule="evenodd" clip-rule="evenodd" d="M14.3347 13.0166C15.3507 12.2799 16 11.1912 16 9.98058C16 7.76325 13.842 5.96525 11.1807 5.96525C8.51933 5.96525 6.36133 7.76325 6.36133 9.98058C6.36133 12.1986 8.51933 13.9966 11.1807 13.9966C11.7307 13.9966 12.2613 13.9186 12.754 13.7766L12.8953 13.7552C12.988 13.7552 13.072 13.7839 13.1513 13.8292L14.2067 14.4386L14.2993 14.4686C14.388 14.4686 14.46 14.3966 14.46 14.3079L14.434 14.1906L14.2167 13.3806L14.2 13.2779C14.2 13.1699 14.2533 13.0746 14.3347 13.0166V13.0166ZM5.78333 1.53125C2.58933 1.53125 0 3.68858 0 6.35058C0 7.80258 0.778667 9.10992 1.998 9.99325C2.096 10.0626 2.16 10.1772 2.16 10.3072L2.14 10.4299L1.87933 11.4019L1.848 11.5426C1.848 11.6492 1.93467 11.7359 2.04067 11.7359L2.15267 11.6999L3.41867 10.9686C3.51333 10.9139 3.614 10.8799 3.72533 10.8799L3.89533 10.9052C4.486 11.0752 5.12333 11.1699 5.78333 11.1699L6.10067 11.1619C5.97533 10.7859 5.90667 10.3899 5.90667 9.98125C5.90667 7.55392 8.268 5.58592 11.1807 5.58592L11.4947 5.59392C11.0593 3.29192 8.668 1.53125 5.78333 1.53125V1.53125ZM9.574 9.33858C9.21933 9.33858 8.932 9.05058 8.932 8.69592C8.932 8.34058 9.21933 8.05325 9.574 8.05325C9.92933 8.05325 10.2167 8.34058 10.2167 8.69592C10.2167 9.05058 9.92933 9.33858 9.574 9.33858ZM12.7873 9.33858C12.432 9.33858 12.1447 9.05058 12.1447 8.69592C12.1447 8.34058 12.432 8.05325 12.7873 8.05325C13.142 8.05325 13.4293 8.34058 13.4293 8.69592C13.4293 9.05058 13.142 9.33858 12.7873 9.33858ZM3.85533 5.57925C3.42933 5.57925 3.08467 5.23392 3.08467 4.80858C3.08467 4.38258 3.42933 4.03725 3.85533 4.03725C4.28133 4.03725 4.62667 4.38258 4.62667 4.80858C4.62667 5.23392 4.28133 5.57925 3.85533 5.57925ZM7.71067 5.57925C7.28467 5.57925 6.94 5.23392 6.94 4.80858C6.94 4.38258 7.28467 4.03725 7.71067 4.03725C8.13667 4.03725 8.482 4.38258 8.482 4.80858C8.482 5.23392 8.13667 5.57925 7.71067 5.57925Z" fill="white"/>
</svg>
