<svg width="16" height="16" viewBox="0 0 16 16" fill="none" xmlns="http://www.w3.org/2000/svg">
<path d="M11.1996 1.91992C10.9509 1.91992 10.7109 1.94492 10.4796 1.98617C10.3059 2.01617 10.1896 2.18242 10.2196 2.35617C10.2496 2.53117 10.4159 2.64742 10.5896 2.61742C10.7921 2.58117 10.9946 2.55992 11.1996 2.55992C13.1471 2.55992 14.7196 4.13242 14.7196 6.07992C14.7196 6.50117 14.6421 6.90367 14.5046 7.28117C14.4621 7.38992 14.4809 7.51242 14.5546 7.60242C14.6296 7.69242 14.7459 7.73492 14.8609 7.71367C14.9759 7.69242 15.0696 7.60992 15.1059 7.49992C15.2671 7.05742 15.3596 6.58117 15.3596 6.07992C15.3596 3.78617 13.4934 1.91992 11.1996 1.91992ZM11.1996 3.83992C11.0634 3.83992 10.9346 3.85367 10.8121 3.87492C10.6384 3.90617 10.5209 4.07117 10.5521 4.24617C10.5821 4.41992 10.7484 4.53617 10.9221 4.50617C11.0159 4.48992 11.1084 4.47992 11.1996 4.47992C12.0871 4.47992 12.7996 5.19242 12.7996 6.07992C12.7996 6.27117 12.7646 6.45367 12.7009 6.62617C12.6409 6.79242 12.7271 6.97617 12.8934 7.03617C13.0596 7.09617 13.2434 7.01117 13.3034 6.84492C13.3896 6.60742 13.4396 6.34992 13.4396 6.07992C13.4396 4.84617 12.4334 3.83992 11.1996 3.83992ZM6.7759 3.96992C5.7484 3.94992 4.1984 4.76117 2.81715 6.11617C1.4434 7.48992 0.639648 8.92992 0.639648 10.1699C0.639648 12.5799 3.7209 14.0199 6.7684 14.0199C10.7196 14.0199 13.3646 11.7437 13.3646 9.93492C13.3646 8.82992 12.4271 8.22617 11.5896 7.95867C11.3896 7.89117 11.2559 7.85867 11.3559 7.58992C11.4221 7.42992 11.5196 7.12492 11.5196 6.71992C11.5196 6.25992 11.1996 5.86117 10.5596 5.78992C10.2421 5.75492 8.95965 5.75992 8.1084 6.11617C8.1084 6.11617 7.6384 6.31867 7.77215 5.94992C8.00715 5.21367 7.9734 4.60992 7.60465 4.27492C7.40465 4.07367 7.11965 3.97617 6.7759 3.96992ZM6.49965 7.65867C8.99715 7.65867 11.0209 8.93242 11.0209 10.5049C11.0209 12.0762 8.99715 13.3499 6.49965 13.3499C4.0034 13.3499 1.97965 12.0762 1.97965 10.5049C1.97965 8.93242 4.0034 7.65867 6.49965 7.65867ZM6.16465 8.32742C5.1984 8.33492 4.25965 8.86367 3.85215 9.67867C3.34965 10.7149 3.8184 11.8537 5.0234 12.2212C6.2284 12.6224 7.66715 12.0199 8.16965 10.9162C8.6709 9.84617 8.0359 8.70867 6.8309 8.40867C6.6109 8.35117 6.38715 8.32617 6.16465 8.32742ZM6.6634 9.67992C6.8484 9.67992 6.9984 9.82867 6.9984 10.0137C6.9984 10.1987 6.8484 10.3487 6.6634 10.3487C6.4784 10.3487 6.3284 10.1987 6.3284 10.0137C6.3284 9.82867 6.4784 9.67992 6.6634 9.67992ZM5.2534 10.0137C5.3584 10.0149 5.4634 10.0312 5.56215 10.0649C5.9909 10.2012 6.12215 10.6074 5.8584 10.9462C5.6284 11.2849 5.10215 11.4537 4.7059 11.2849C4.31215 11.1162 4.2134 10.7087 4.4434 10.4049C4.6159 10.1499 4.93715 10.0099 5.2534 10.0137Z" fill="white"/>
</svg>
