<svg width="16" height="16" viewBox="0 0 16 16" fill="none" xmlns="http://www.w3.org/2000/svg">
<g clip-path="url(#clip0)">
<path d="M15.8414 4.8002C15.8414 4.8002 15.6851 3.69707 15.2039 3.2127C14.5945 2.5752 13.9133 2.57207 13.6008 2.53457C11.3633 2.37207 8.0039 2.37207 8.0039 2.37207H7.99765C7.99765 2.37207 4.63828 2.37207 2.40078 2.53457C2.08828 2.57207 1.40703 2.5752 0.797656 3.2127C0.316406 3.69707 0.163281 4.8002 0.163281 4.8002C0.163281 4.8002 0.00390625 6.09395 0.00390625 7.39082V8.60332C0.00390625 9.89707 0.163281 11.1939 0.163281 11.1939C0.163281 11.1939 0.319531 12.2971 0.797656 12.7814C1.40703 13.4189 2.20703 13.3971 2.56328 13.4658C3.84453 13.5877 8.0039 13.6252 8.0039 13.6252C8.0039 13.6252 11.3664 13.6189 13.6039 13.4596C13.9164 13.4221 14.5976 13.4189 15.207 12.7814C15.6883 12.2971 15.8445 11.1939 15.8445 11.1939C15.8445 11.1939 16.0039 9.90019 16.0039 8.60332V7.39082C16.0008 6.09707 15.8414 4.8002 15.8414 4.8002V4.8002ZM6.34765 10.0752V5.57832L10.6695 7.83457L6.34765 10.0752V10.0752Z" fill="white"/>
</g>
<defs>
<clipPath id="clip0">
<rect width="16" height="16" fill="white"/>
</clipPath>
</defs>
</svg>
